<svg width="240" height="120" viewBox="0 0 240 120" fill="none" xmlns="http://www.w3.org/2000/svg">
<path d="M225.82 90.9371V89.2171H222.16V88.4071L225.8 83.4871H226.74V88.4071H227.71V89.2171H226.74V90.9371H225.82ZM222.9 88.7571L222.76 88.4071H225.82V84.3071L226.11 84.3871L222.9 88.7571ZM231.107 91.0571C230.721 91.0571 230.357 90.9905 230.017 90.8571C229.677 90.7171 229.381 90.5205 229.127 90.2671C228.881 90.0071 228.701 89.7038 228.587 89.3571L229.387 89.0171C229.527 89.3838 229.754 89.6705 230.067 89.8771C230.387 90.0771 230.734 90.1771 231.107 90.1771C231.414 90.1771 231.684 90.1105 231.917 89.9771C232.157 89.8371 232.344 89.6471 232.477 89.4071C232.611 89.1605 232.677 88.8871 232.677 88.5871C232.677 88.2738 232.607 87.9971 232.467 87.7571C232.334 87.5171 232.151 87.3305 231.917 87.1971C231.684 87.0571 231.417 86.9871 231.117 86.9871C230.811 86.9871 230.531 87.0571 230.277 87.1971C230.024 87.3371 229.841 87.5138 229.727 87.7271L228.937 87.5571L229.507 83.4871H233.367V84.3371H229.877L230.257 83.9571L229.817 87.1171L229.477 86.9171C229.697 86.6371 229.954 86.4371 230.247 86.3171C230.547 86.1905 230.871 86.1271 231.217 86.1271C231.704 86.1271 232.131 86.2371 232.497 86.4571C232.864 86.6771 233.151 86.9705 233.357 87.3371C233.564 87.7038 233.667 88.1205 233.667 88.5871C233.667 89.0538 233.554 89.4738 233.327 89.8471C233.107 90.2205 232.804 90.5171 232.417 90.7371C232.037 90.9505 231.601 91.0571 231.107 91.0571ZM234.989 90.9371V83.3671H235.919V88.5571L235.539 88.4671L238.399 85.5471H239.589L237.519 87.7171L239.729 90.9371H238.629L236.609 88.0171L237.189 87.9871L235.619 89.6271L235.919 88.9471V90.9371H234.989Z" fill="#646464"/>
<path d="M2.96002 91.0571C2.36668 91.0571 1.84668 90.8971 1.40002 90.5771C0.960017 90.2505 0.616684 89.8005 0.370017 89.2271C0.12335 88.6471 1.71065e-05 87.9738 1.71065e-05 87.2071C1.71065e-05 86.4405 0.12335 85.7705 0.370017 85.1971C0.616684 84.6171 0.960017 84.1671 1.40002 83.8471C1.84002 83.5271 2.35668 83.3671 2.95002 83.3671C3.54335 83.3671 4.06002 83.5271 4.50002 83.8471C4.94002 84.1671 5.28335 84.6171 5.53002 85.1971C5.78335 85.7705 5.91002 86.4405 5.91002 87.2071C5.91002 87.9738 5.78668 88.6471 5.54002 89.2271C5.29335 89.8071 4.94668 90.2571 4.50002 90.5771C4.06002 90.8971 3.54668 91.0571 2.96002 91.0571ZM2.96002 90.1471C3.36002 90.1471 3.70668 90.0271 4.00002 89.7871C4.29335 89.5405 4.52002 89.1971 4.68002 88.7571C4.84668 88.3171 4.93002 87.8005 4.93002 87.2071C4.93002 86.6138 4.84668 86.0971 4.68002 85.6571C4.52002 85.2171 4.29002 84.8771 3.99002 84.6371C3.69668 84.3971 3.35002 84.2771 2.95002 84.2771C2.55002 84.2771 2.20335 84.3971 1.91002 84.6371C1.61668 84.8771 1.38668 85.2171 1.22002 85.6571C1.06002 86.0971 0.980017 86.6138 0.980017 87.2071C0.980017 87.7938 1.06002 88.3071 1.22002 88.7471C1.38668 89.1871 1.61668 89.5305 1.91002 89.7771C2.21002 90.0238 2.56002 90.1471 2.96002 90.1471ZM7.28635 90.9371V83.3671H8.21635V88.5571L7.83635 88.4671L10.6963 85.5471H11.8863L9.81635 87.7171L12.0263 90.9371H10.9263L8.90635 88.0171L9.48635 87.9871L7.91635 89.6271L8.21635 88.9471V90.9371H7.28635Z" fill="#646464"/>
<path d="M107.235 57.2816V54.8611H102.084V53.7213L107.206 46.7975H108.529V53.7213H109.894V54.8611H108.529V57.2816H107.235ZM103.125 54.2138L102.928 53.7213H107.235V47.9515L107.643 48.0641L103.125 54.2138ZM114.689 57.4505C114.013 57.4505 113.413 57.3004 112.888 57.0002C112.372 56.6999 111.963 56.2918 111.663 55.7758C111.363 55.2505 111.213 54.6547 111.213 53.9886C111.213 53.6227 111.255 53.2615 111.34 52.905C111.424 52.5485 111.56 52.1873 111.748 51.8215C111.935 51.4556 112.175 51.0756 112.465 50.6816L115.421 46.7975H117.081L113.465 51.4978L113.211 51.4696C113.352 51.282 113.507 51.1366 113.676 51.0334C113.854 50.9302 114.041 50.8551 114.238 50.8082C114.445 50.7613 114.661 50.7379 114.886 50.7379C115.505 50.7379 116.059 50.8833 116.546 51.1741C117.044 51.4556 117.433 51.8449 117.714 52.3421C118.005 52.8394 118.151 53.4117 118.151 54.059C118.151 54.7063 118.001 55.288 117.7 55.804C117.4 56.3106 116.987 56.714 116.462 57.0142C115.946 57.3051 115.355 57.4505 114.689 57.4505ZM114.689 56.2121C115.083 56.2121 115.435 56.123 115.744 55.9447C116.054 55.7571 116.298 55.4991 116.476 55.1707C116.664 54.8424 116.757 54.4765 116.757 54.0731C116.757 53.6509 116.668 53.285 116.49 52.9754C116.312 52.6564 116.068 52.4031 115.758 52.2155C115.449 52.0278 115.092 51.934 114.689 51.934C114.295 51.934 113.938 52.0278 113.619 52.2155C113.3 52.4031 113.052 52.6564 112.873 52.9754C112.695 53.285 112.606 53.6509 112.606 54.0731C112.606 54.4765 112.695 54.8424 112.873 55.1707C113.061 55.4991 113.31 55.7571 113.619 55.9447C113.938 56.123 114.295 56.2121 114.689 56.2121ZM120.89 57.2816L129.446 46.7975H131.008L122.452 57.2816H120.89ZM122.466 52.117C121.95 52.117 121.485 51.995 121.073 51.7511C120.66 51.4978 120.327 51.1647 120.073 50.7519C119.83 50.3391 119.708 49.8794 119.708 49.3728C119.708 48.8662 119.83 48.4065 120.073 47.9937C120.327 47.5715 120.66 47.2385 121.073 46.9946C121.485 46.7506 121.95 46.6287 122.466 46.6287C122.972 46.6287 123.432 46.7506 123.845 46.9946C124.258 47.2385 124.586 47.5715 124.83 47.9937C125.074 48.4065 125.196 48.8662 125.196 49.3728C125.196 49.8794 125.074 50.3391 124.83 50.7519C124.586 51.1647 124.258 51.4978 123.845 51.7511C123.432 51.995 122.972 52.117 122.466 52.117ZM122.452 50.963C122.771 50.963 123.043 50.888 123.268 50.7379C123.493 50.5878 123.671 50.3907 123.803 50.1468C123.934 49.9029 124 49.6449 124 49.3728C124 49.0914 123.934 48.8334 123.803 48.5988C123.671 48.3549 123.493 48.1579 123.268 48.0078C123.043 47.8483 122.771 47.7685 122.452 47.7685C122.152 47.7685 121.884 47.8483 121.65 48.0078C121.415 48.1579 121.232 48.3549 121.101 48.5988C120.969 48.8428 120.904 49.1008 120.904 49.3728C120.904 49.6355 120.969 49.8935 121.101 50.1468C121.232 50.3907 121.415 50.5878 121.65 50.7379C121.884 50.888 122.152 50.963 122.452 50.963ZM129.347 57.4505C128.831 57.4505 128.367 57.3285 127.954 57.0846C127.541 56.8313 127.208 56.4982 126.955 56.0854C126.711 55.6727 126.589 55.2129 126.589 54.7063C126.589 54.1997 126.711 53.74 126.955 53.3272C127.208 52.905 127.541 52.572 127.954 52.3281C128.367 52.0841 128.831 51.9622 129.347 51.9622C129.854 51.9622 130.314 52.0841 130.726 52.3281C131.139 52.572 131.468 52.905 131.711 53.3272C131.955 53.74 132.077 54.1997 132.077 54.7063C132.077 55.2129 131.955 55.6727 131.711 56.0854C131.468 56.4982 131.139 56.8313 130.726 57.0846C130.314 57.3285 129.854 57.4505 129.347 57.4505ZM129.347 56.2965C129.657 56.2965 129.924 56.2215 130.149 56.0714C130.384 55.9213 130.562 55.7242 130.684 55.4803C130.816 55.2364 130.881 54.9784 130.881 54.7063C130.881 54.4249 130.816 54.1669 130.684 53.9323C130.562 53.6884 130.384 53.4914 130.149 53.3413C129.924 53.1818 129.657 53.1021 129.347 53.1021C129.047 53.1021 128.775 53.1818 128.531 53.3413C128.297 53.4914 128.114 53.6884 127.982 53.9323C127.851 54.1763 127.785 54.4343 127.785 54.7063C127.785 54.969 127.851 55.227 127.982 55.4803C128.114 55.7242 128.297 55.9213 128.531 56.0714C128.775 56.2215 129.047 56.2965 129.347 56.2965Z" fill="#ABABAB"/>
<path d="M87.8045 84.4371V77.4478H90.2063C90.6628 77.4478 91.0631 77.5385 91.4071 77.7198C91.7511 77.895 92.0169 78.1451 92.2046 78.4704C92.3985 78.7894 92.4954 79.1615 92.4954 79.5868C92.4954 80.0809 92.3641 80.5031 92.1014 80.8533C91.8449 81.2036 91.4947 81.4506 91.0506 81.5945L92.683 84.4371H91.8011L90.0937 81.4256L90.6003 81.7164H88.5551V84.4371H87.8045ZM88.5551 81.0128H90.2438C90.544 81.0128 90.8067 80.9565 91.0318 80.8439C91.257 80.7251 91.4321 80.5594 91.5572 80.3467C91.6823 80.1278 91.7449 79.8714 91.7449 79.5774C91.7449 79.2835 91.6823 79.0301 91.5572 78.8175C91.4321 78.6048 91.257 78.4422 91.0318 78.3296C90.8067 78.2108 90.544 78.1514 90.2438 78.1514H88.5551V81.0128ZM96.1695 84.5497C95.7254 84.5497 95.322 84.4653 94.9593 84.2964C94.5965 84.1276 94.29 83.9024 94.0399 83.6209C93.7897 83.3332 93.6114 83.0174 93.5051 82.6734L94.1806 82.4201C94.3432 82.8954 94.5965 83.2582 94.9405 83.5084C95.2845 83.7523 95.6942 83.8742 96.1695 83.8742C96.4697 83.8742 96.7324 83.8273 96.9576 83.7335C97.189 83.6334 97.3672 83.4958 97.4923 83.3207C97.6174 83.1456 97.68 82.9423 97.68 82.7109C97.68 82.3669 97.5862 82.1011 97.3985 81.9135C97.2109 81.7258 96.9419 81.582 96.5917 81.4819L95.3345 81.1066C94.8404 80.9628 94.4589 80.722 94.19 80.3842C93.9273 80.0465 93.7959 79.6619 93.7959 79.2303C93.7959 78.8613 93.8866 78.536 94.068 78.2546C94.2494 77.9669 94.4964 77.7417 94.8092 77.5791C95.1281 77.4165 95.4878 77.3352 95.8881 77.3352C96.3071 77.3352 96.6824 77.4134 97.0139 77.5697C97.3516 77.7198 97.6362 77.92 97.8676 78.1702C98.099 78.4203 98.2648 78.6987 98.3648 79.0051L97.7081 79.2678C97.558 78.855 97.3235 78.5423 97.0045 78.3296C96.6918 78.117 96.3228 78.0107 95.8974 78.0107C95.6285 78.0107 95.3908 78.0576 95.1844 78.1514C94.9843 78.2452 94.8279 78.3797 94.7153 78.5548C94.6028 78.7299 94.5465 78.9363 94.5465 79.174C94.5465 79.4617 94.6372 79.7213 94.8185 79.9527C94.9999 80.1778 95.2783 80.3467 95.6535 80.4593L96.7606 80.7877C97.311 80.9503 97.7269 81.1848 98.0083 81.4913C98.2898 81.7978 98.4305 82.1824 98.4305 82.6452C98.4305 83.0205 98.3336 83.352 98.1397 83.6397C97.952 83.9212 97.6862 84.1432 97.3422 84.3058C97.0045 84.4684 96.6136 84.5497 96.1695 84.5497ZM95.7661 85.3753V76.5096H96.4228V85.3753H95.7661ZM104.636 84.4371V82.786H101.08V82.1762L104.636 77.4478H105.292V82.1762H106.146V82.786H105.292V84.4371H104.636ZM101.652 82.4482L101.568 82.1762H104.636V78.0951L104.87 78.1608L101.652 82.4482ZM109.372 84.5497C108.935 84.5497 108.547 84.4528 108.209 84.2589C107.871 84.0588 107.605 83.7867 107.412 83.4427C107.218 83.0924 107.121 82.6921 107.121 82.2418C107.121 81.9916 107.149 81.7446 107.205 81.5007C107.268 81.2567 107.358 81.0159 107.477 80.7783C107.602 80.5406 107.752 80.3029 107.928 80.0653L109.898 77.4478H110.798L108.368 80.6282L108.228 80.7126C108.322 80.5562 108.431 80.4374 108.556 80.3561C108.681 80.2685 108.819 80.206 108.969 80.1685C109.125 80.1309 109.291 80.1122 109.466 80.1122C109.873 80.1122 110.239 80.2091 110.564 80.403C110.889 80.5906 111.145 80.8502 111.333 81.1817C111.527 81.5132 111.624 81.8978 111.624 82.3356C111.624 82.7547 111.524 83.1331 111.324 83.4708C111.13 83.8023 110.864 84.065 110.526 84.2589C110.189 84.4528 109.804 84.5497 109.372 84.5497ZM109.372 83.893C109.66 83.893 109.916 83.8273 110.142 83.696C110.367 83.5584 110.545 83.3708 110.676 83.1331C110.808 82.8954 110.873 82.6296 110.873 82.3356C110.873 82.0354 110.808 81.7696 110.676 81.5382C110.551 81.3068 110.376 81.1254 110.151 80.9941C109.926 80.8565 109.666 80.7877 109.372 80.7877C109.085 80.7877 108.825 80.8565 108.594 80.9941C108.368 81.1254 108.19 81.3068 108.059 81.5382C107.934 81.7696 107.871 82.0354 107.871 82.3356C107.871 82.6296 107.937 82.8954 108.068 83.1331C108.2 83.3708 108.378 83.5584 108.603 83.696C108.828 83.8273 109.085 83.893 109.372 83.893ZM112.906 85.6568V85.3284C113.094 85.2784 113.231 85.1814 113.319 85.0376C113.407 84.8937 113.45 84.6936 113.45 84.4371H113.094V83.4052H113.844V84.1932C113.844 84.5998 113.766 84.925 113.61 85.1689C113.453 85.4191 113.219 85.5817 112.906 85.6568ZM116.045 84.4371L118.475 81.2567L118.615 81.1723C118.521 81.3224 118.412 81.4413 118.287 81.5288C118.162 81.6164 118.024 81.6789 117.874 81.7164C117.724 81.754 117.558 81.7727 117.377 81.7727C116.97 81.7727 116.604 81.6789 116.279 81.4913C115.954 81.2974 115.694 81.0347 115.501 80.7032C115.313 80.3655 115.219 79.9808 115.219 79.5493C115.219 79.124 115.316 78.7456 115.51 78.4141C115.71 78.0826 115.979 77.8199 116.317 77.626C116.661 77.4321 117.045 77.3352 117.471 77.3352C117.909 77.3352 118.296 77.4353 118.634 77.6354C118.972 77.8293 119.238 78.1014 119.432 78.4516C119.625 78.7956 119.722 79.1928 119.722 79.6431C119.722 79.8933 119.691 80.1403 119.629 80.3842C119.572 80.6282 119.485 80.869 119.366 81.1066C119.247 81.3443 119.097 81.582 118.916 81.8196L116.945 84.4371H116.045ZM117.471 81.0973C117.765 81.0973 118.024 81.0316 118.249 80.9002C118.475 80.7626 118.65 80.5781 118.775 80.3467C118.906 80.109 118.972 79.8432 118.972 79.5493C118.972 79.2491 118.906 78.9832 118.775 78.7518C118.643 78.5142 118.465 78.3296 118.24 78.1983C118.015 78.0607 117.758 77.9919 117.471 77.9919C117.183 77.9919 116.927 78.0607 116.701 78.1983C116.476 78.3296 116.298 78.5142 116.167 78.7518C116.035 78.9832 115.97 79.2491 115.97 79.5493C115.97 79.8432 116.032 80.109 116.157 80.3467C116.289 80.5781 116.467 80.7626 116.692 80.9002C116.923 81.0316 117.183 81.0973 117.471 81.0973ZM123.228 84.5497C122.778 84.5497 122.374 84.459 122.018 84.2777C121.668 84.09 121.389 83.8367 121.183 83.5177C120.983 83.1925 120.883 82.8266 120.883 82.4201C120.883 81.976 121.008 81.5788 121.258 81.2286C121.514 80.8783 121.858 80.6344 122.29 80.4968V80.6938C121.958 80.55 121.702 80.3373 121.521 80.0559C121.339 79.7682 121.249 79.4617 121.249 79.1365C121.249 78.7925 121.336 78.486 121.511 78.2171C121.686 77.9481 121.921 77.7355 122.215 77.5791C122.515 77.4165 122.853 77.3352 123.228 77.3352C123.61 77.3352 123.947 77.4134 124.241 77.5697C124.535 77.7198 124.767 77.9325 124.936 78.2077C125.111 78.4766 125.198 78.7862 125.198 79.1365C125.198 79.4867 125.104 79.7994 124.917 80.0746C124.729 80.3436 124.482 80.55 124.176 80.6938L124.166 80.4968C124.598 80.6344 124.939 80.8783 125.189 81.2286C125.445 81.5788 125.574 81.976 125.574 82.4201C125.574 82.8266 125.47 83.1925 125.264 83.5177C125.064 83.8367 124.785 84.09 124.429 84.2777C124.079 84.459 123.678 84.5497 123.228 84.5497ZM123.228 83.893C123.547 83.893 123.825 83.8336 124.063 83.7148C124.301 83.5897 124.485 83.4177 124.617 83.1988C124.754 82.9736 124.823 82.714 124.823 82.4201C124.823 82.1261 124.754 81.8697 124.617 81.6508C124.485 81.4256 124.301 81.2536 124.063 81.1348C123.825 81.0097 123.547 80.9471 123.228 80.9471C122.909 80.9471 122.628 81.0097 122.384 81.1348C122.146 81.2536 121.962 81.4256 121.83 81.6508C121.699 81.8697 121.633 82.1261 121.633 82.4201C121.633 82.714 121.699 82.9736 121.83 83.1988C121.962 83.4177 122.146 83.5897 122.384 83.7148C122.628 83.8336 122.909 83.893 123.228 83.893ZM123.228 80.2904C123.46 80.2904 123.666 80.2435 123.847 80.1497C124.029 80.0496 124.173 79.9152 124.279 79.7463C124.391 79.5712 124.448 79.3679 124.448 79.1365C124.448 78.9051 124.391 78.7049 124.279 78.536C124.173 78.3672 124.029 78.2358 123.847 78.142C123.666 78.0419 123.46 77.9919 123.228 77.9919C122.997 77.9919 122.787 78.0419 122.6 78.142C122.418 78.2358 122.271 78.3672 122.159 78.536C122.052 78.7049 121.999 78.9051 121.999 79.1365C121.999 79.3679 122.052 79.5712 122.159 79.7463C122.271 79.9152 122.418 80.0496 122.6 80.1497C122.787 80.2435 122.997 80.2904 123.228 80.2904ZM126.717 84.4371V83.9681L128.669 81.8196C129.05 81.4006 129.36 81.0535 129.598 80.7783C129.842 80.5031 130.023 80.2529 130.142 80.0277C130.261 79.8026 130.32 79.5587 130.32 79.296C130.32 78.8769 130.198 78.5548 129.954 78.3296C129.71 78.1045 129.385 77.9919 128.978 77.9919C128.559 77.9919 128.206 78.1107 127.918 78.3484C127.637 78.5861 127.446 78.9176 127.346 79.3429L126.661 79.1928C126.742 78.8112 126.889 78.4829 127.102 78.2077C127.315 77.9325 127.581 77.7198 127.9 77.5697C128.219 77.4134 128.575 77.3352 128.969 77.3352C129.388 77.3352 129.754 77.4196 130.067 77.5885C130.379 77.7574 130.623 77.9888 130.798 78.2827C130.98 78.5767 131.071 78.9144 131.071 79.296C131.071 79.5587 131.014 79.812 130.902 80.0559C130.795 80.2998 130.633 80.5625 130.414 80.8439C130.195 81.1254 129.913 81.4538 129.569 81.829L127.796 83.7804H131.258V84.4371H126.717ZM132.765 84.4371V83.4052H133.516V84.4371H132.765ZM137.926 84.5497C137.376 84.5497 136.891 84.3996 136.472 84.0994C136.059 83.7929 135.737 83.3708 135.506 82.8329C135.274 82.2887 135.159 81.657 135.159 80.9378C135.159 80.2185 135.274 79.5899 135.506 79.052C135.737 78.5079 136.059 78.0857 136.472 77.7855C136.885 77.4853 137.366 77.3352 137.917 77.3352C138.467 77.3352 138.949 77.4853 139.362 77.7855C139.774 78.0857 140.096 78.5079 140.328 79.052C140.559 79.5899 140.675 80.2185 140.675 80.9378C140.675 81.657 140.559 82.2887 140.328 82.8329C140.103 83.377 139.784 83.7992 139.371 84.0994C138.958 84.3996 138.477 84.5497 137.926 84.5497ZM137.926 83.8461C138.326 83.8461 138.677 83.7241 138.977 83.4802C139.277 83.2363 139.512 82.8985 139.681 82.467C139.849 82.0292 139.934 81.5194 139.934 80.9378C139.934 80.3561 139.849 79.8495 139.681 79.4179C139.512 78.9801 139.277 78.6424 138.977 78.4047C138.677 78.1608 138.323 78.0388 137.917 78.0388C137.517 78.0388 137.166 78.1608 136.866 78.4047C136.566 78.6424 136.331 78.9801 136.162 79.4179C135.994 79.8495 135.909 80.3561 135.909 80.9378C135.909 81.5132 135.994 82.0198 136.162 82.4576C136.331 82.8954 136.566 83.2363 136.866 83.4802C137.173 83.7241 137.526 83.8461 137.926 83.8461ZM144.3 84.5497C143.85 84.5497 143.447 84.459 143.09 84.2777C142.74 84.09 142.462 83.8367 142.255 83.5177C142.055 83.1925 141.955 82.8266 141.955 82.4201C141.955 81.976 142.08 81.5788 142.33 81.2286C142.587 80.8783 142.931 80.6344 143.362 80.4968V80.6938C143.031 80.55 142.774 80.3373 142.593 80.0559C142.411 79.7682 142.321 79.4617 142.321 79.1365C142.321 78.7925 142.408 78.486 142.583 78.2171C142.759 77.9481 142.993 77.7355 143.287 77.5791C143.587 77.4165 143.925 77.3352 144.3 77.3352C144.682 77.3352 145.02 77.4134 145.314 77.5697C145.608 77.7198 145.839 77.9325 146.008 78.2077C146.183 78.4766 146.27 78.7862 146.27 79.1365C146.27 79.4867 146.177 79.7994 145.989 80.0746C145.801 80.3436 145.554 80.55 145.248 80.6938L145.239 80.4968C145.67 80.6344 146.011 80.8783 146.261 81.2286C146.518 81.5788 146.646 81.976 146.646 82.4201C146.646 82.8266 146.543 83.1925 146.336 83.5177C146.136 83.8367 145.858 84.09 145.501 84.2777C145.151 84.459 144.751 84.5497 144.3 84.5497ZM144.3 83.893C144.619 83.893 144.898 83.8336 145.135 83.7148C145.373 83.5897 145.557 83.4177 145.689 83.1988C145.826 82.9736 145.895 82.714 145.895 82.4201C145.895 82.1261 145.826 81.8697 145.689 81.6508C145.557 81.4256 145.373 81.2536 145.135 81.1348C144.898 81.0097 144.619 80.9471 144.3 80.9471C143.981 80.9471 143.7 81.0097 143.456 81.1348C143.218 81.2536 143.034 81.4256 142.902 81.6508C142.771 81.8697 142.705 82.1261 142.705 82.4201C142.705 82.714 142.771 82.9736 142.902 83.1988C143.034 83.4177 143.218 83.5897 143.456 83.7148C143.7 83.8336 143.981 83.893 144.3 83.893ZM144.3 80.2904C144.532 80.2904 144.738 80.2435 144.92 80.1497C145.101 80.0496 145.245 79.9152 145.351 79.7463C145.464 79.5712 145.52 79.3679 145.52 79.1365C145.52 78.9051 145.464 78.7049 145.351 78.536C145.245 78.3672 145.101 78.2358 144.92 78.142C144.738 78.0419 144.532 77.9919 144.3 77.9919C144.069 77.9919 143.859 78.0419 143.672 78.142C143.49 78.2358 143.343 78.3672 143.231 78.536C143.124 78.7049 143.071 78.9051 143.071 79.1365C143.071 79.3679 143.124 79.5712 143.231 79.7463C143.343 79.9152 143.49 80.0496 143.672 80.1497C143.859 80.2435 144.069 80.2904 144.3 80.2904Z" fill="#595959"/>
<path d="M78.2271 119.433V111.983H82.8271V112.733H79.0271V115.323H82.5271V116.073H79.0271V119.433H78.2271ZM85.1749 119.553C84.8349 119.553 84.5316 119.489 84.2649 119.363C83.9983 119.229 83.7883 119.049 83.6349 118.823C83.4816 118.596 83.4049 118.336 83.4049 118.043C83.4049 117.763 83.4649 117.509 83.5849 117.283C83.7049 117.049 83.8916 116.853 84.1449 116.693C84.3983 116.533 84.7216 116.419 85.1149 116.353L87.2149 116.003V116.683L85.2949 117.003C84.9083 117.069 84.6283 117.193 84.4549 117.373C84.2883 117.553 84.2049 117.766 84.2049 118.013C84.2049 118.253 84.2983 118.456 84.4849 118.623C84.6783 118.789 84.9249 118.873 85.2249 118.873C85.5916 118.873 85.9116 118.796 86.1849 118.643C86.4583 118.483 86.6716 118.269 86.8249 118.003C86.9783 117.736 87.0549 117.439 87.0549 117.113V115.753C87.0549 115.433 86.9383 115.173 86.7049 114.973C86.4716 114.773 86.1683 114.673 85.7949 114.673C85.4683 114.673 85.1816 114.756 84.9349 114.923C84.6883 115.083 84.5049 115.293 84.3849 115.553L83.7049 115.183C83.8049 114.956 83.9616 114.749 84.1749 114.563C84.3949 114.376 84.6449 114.229 84.9249 114.123C85.2049 114.009 85.4949 113.953 85.7949 113.953C86.1883 113.953 86.5349 114.029 86.8349 114.183C87.1416 114.336 87.3783 114.549 87.5449 114.823C87.7183 115.089 87.8049 115.399 87.8049 115.753V119.433H87.0549V118.363L87.1649 118.473C87.0716 118.673 86.9249 118.856 86.7249 119.023C86.5316 119.183 86.3016 119.313 86.0349 119.413C85.7749 119.506 85.4883 119.553 85.1749 119.553ZM91.2999 119.493C90.8199 119.493 90.4499 119.353 90.1899 119.073C89.9299 118.793 89.7999 118.393 89.7999 117.873V114.823H88.8099V114.073H89.0599C89.2866 114.073 89.4666 113.999 89.5999 113.853C89.7333 113.699 89.7999 113.509 89.7999 113.283V112.833H90.5499V114.073H91.7299V114.823H90.5499V117.873C90.5499 118.053 90.5766 118.213 90.6299 118.353C90.6833 118.486 90.7733 118.593 90.8999 118.673C91.0333 118.753 91.2099 118.793 91.4299 118.793C91.4833 118.793 91.5466 118.789 91.6199 118.783C91.6933 118.776 91.7566 118.769 91.8099 118.763V119.433C91.7299 119.453 91.6399 119.466 91.5399 119.473C91.4399 119.486 91.3599 119.493 91.2999 119.493ZM95.0269 119.553C94.6535 119.553 94.3135 119.466 94.0069 119.293C93.7002 119.113 93.4569 118.866 93.2769 118.553C93.1035 118.233 93.0169 117.866 93.0169 117.453V114.073H93.7669V117.363C93.7669 117.649 93.8235 117.903 93.9369 118.123C94.0569 118.336 94.2202 118.503 94.4269 118.623C94.6402 118.743 94.8835 118.803 95.1569 118.803C95.4302 118.803 95.6735 118.743 95.8869 118.623C96.1002 118.496 96.2669 118.319 96.3869 118.093C96.5069 117.859 96.5669 117.583 96.5669 117.263V114.073H97.3169V119.433H96.5669V118.393L96.7369 118.433C96.6102 118.779 96.3935 119.053 96.0869 119.253C95.7802 119.453 95.4269 119.553 95.0269 119.553ZM98.8593 119.433V114.073H99.6093V114.953L99.5093 114.823C99.636 114.569 99.826 114.369 100.079 114.223C100.339 114.076 100.653 114.003 101.019 114.003H101.359V114.753H100.889C100.503 114.753 100.193 114.873 99.9593 115.113C99.726 115.353 99.6093 115.693 99.6093 116.133V119.433H98.8593ZM103.788 119.553C103.448 119.553 103.145 119.489 102.878 119.363C102.612 119.229 102.402 119.049 102.248 118.823C102.095 118.596 102.018 118.336 102.018 118.043C102.018 117.763 102.078 117.509 102.198 117.283C102.318 117.049 102.505 116.853 102.758 116.693C103.012 116.533 103.335 116.419 103.728 116.353L105.828 116.003V116.683L103.908 117.003C103.522 117.069 103.242 117.193 103.068 117.373C102.902 117.553 102.818 117.766 102.818 118.013C102.818 118.253 102.912 118.456 103.098 118.623C103.292 118.789 103.538 118.873 103.838 118.873C104.205 118.873 104.525 118.796 104.798 118.643C105.072 118.483 105.285 118.269 105.438 118.003C105.592 117.736 105.668 117.439 105.668 117.113V115.753C105.668 115.433 105.552 115.173 105.318 114.973C105.085 114.773 104.782 114.673 104.408 114.673C104.082 114.673 103.795 114.756 103.548 114.923C103.302 115.083 103.118 115.293 102.998 115.553L102.318 115.183C102.418 114.956 102.575 114.749 102.788 114.563C103.008 114.376 103.258 114.229 103.538 114.123C103.818 114.009 104.108 113.953 104.408 113.953C104.802 113.953 105.148 114.029 105.448 114.183C105.755 114.336 105.992 114.549 106.158 114.823C106.332 115.089 106.418 115.399 106.418 115.753V119.433H105.668V118.363L105.778 118.473C105.685 118.673 105.538 118.856 105.338 119.023C105.145 119.183 104.915 119.313 104.648 119.413C104.388 119.506 104.102 119.553 103.788 119.553ZM110.381 119.553C109.881 119.553 109.431 119.433 109.031 119.193C108.631 118.946 108.314 118.613 108.081 118.193C107.854 117.766 107.741 117.286 107.741 116.753C107.741 116.213 107.854 115.733 108.081 115.313C108.314 114.893 108.628 114.563 109.021 114.323C109.421 114.076 109.874 113.953 110.381 113.953C110.841 113.953 111.251 114.053 111.611 114.253C111.971 114.453 112.254 114.723 112.461 115.063L112.341 115.273V111.863H113.091V119.433H112.341V118.233L112.461 118.343C112.274 118.729 111.994 119.029 111.621 119.243C111.254 119.449 110.841 119.553 110.381 119.553ZM110.421 118.803C110.781 118.803 111.104 118.713 111.391 118.533C111.684 118.353 111.914 118.109 112.081 117.803C112.254 117.489 112.341 117.139 112.341 116.753C112.341 116.366 112.254 116.019 112.081 115.713C111.914 115.399 111.684 115.153 111.391 114.973C111.104 114.793 110.781 114.703 110.421 114.703C110.068 114.703 109.748 114.793 109.461 114.973C109.174 115.153 108.948 115.396 108.781 115.703C108.621 116.009 108.541 116.359 108.541 116.753C108.541 117.139 108.621 117.489 108.781 117.803C108.948 118.109 109.171 118.353 109.451 118.533C109.738 118.713 110.061 118.803 110.421 118.803ZM117.141 119.553C116.634 119.553 116.174 119.433 115.761 119.193C115.347 118.946 115.017 118.613 114.771 118.193C114.531 117.766 114.411 117.283 114.411 116.743C114.411 116.209 114.531 115.733 114.771 115.313C115.011 114.893 115.334 114.563 115.741 114.323C116.154 114.076 116.621 113.953 117.141 113.953C117.661 113.953 118.124 114.073 118.531 114.313C118.944 114.553 119.267 114.883 119.501 115.303C119.741 115.723 119.861 116.203 119.861 116.743C119.861 117.289 119.737 117.776 119.491 118.203C119.244 118.623 118.914 118.953 118.501 119.193C118.094 119.433 117.641 119.553 117.141 119.553ZM117.141 118.803C117.501 118.803 117.824 118.713 118.111 118.533C118.404 118.353 118.634 118.106 118.801 117.793C118.974 117.479 119.061 117.129 119.061 116.743C119.061 116.356 118.974 116.009 118.801 115.703C118.634 115.396 118.404 115.153 118.111 114.973C117.824 114.793 117.501 114.703 117.141 114.703C116.781 114.703 116.454 114.793 116.161 114.973C115.874 115.153 115.644 115.396 115.471 115.703C115.297 116.009 115.211 116.356 115.211 116.743C115.211 117.129 115.297 117.479 115.471 117.793C115.644 118.106 115.874 118.353 116.161 118.533C116.454 118.713 116.781 118.803 117.141 118.803Z" fill="#595959"/>
<path d="M153.531 119.433V111.983H154.231L157.031 116.043H156.641L159.431 111.983H160.131V119.433H159.331V113.063L159.591 113.163L156.851 117.133H156.811L154.081 113.163L154.331 113.063V119.433H153.531ZM164.221 119.553C163.721 119.553 163.267 119.433 162.861 119.193C162.461 118.946 162.144 118.609 161.911 118.183C161.677 117.756 161.561 117.273 161.561 116.733C161.561 116.193 161.674 115.716 161.901 115.303C162.127 114.883 162.434 114.553 162.821 114.313C163.214 114.073 163.654 113.953 164.141 113.953C164.527 113.953 164.871 114.026 165.171 114.173C165.477 114.313 165.737 114.506 165.951 114.753C166.164 114.993 166.327 115.266 166.441 115.573C166.554 115.873 166.611 116.183 166.611 116.503C166.611 116.569 166.607 116.646 166.601 116.733C166.594 116.813 166.584 116.896 166.571 116.983H162.041V116.283H166.141L165.781 116.583C165.841 116.216 165.797 115.889 165.651 115.603C165.511 115.309 165.307 115.079 165.041 114.913C164.774 114.739 164.474 114.653 164.141 114.653C163.807 114.653 163.497 114.739 163.211 114.913C162.931 115.086 162.711 115.329 162.551 115.643C162.391 115.949 162.327 116.316 162.361 116.743C162.327 117.169 162.394 117.543 162.561 117.863C162.734 118.176 162.967 118.419 163.261 118.593C163.561 118.766 163.881 118.853 164.221 118.853C164.614 118.853 164.944 118.759 165.211 118.573C165.477 118.386 165.694 118.153 165.861 117.873L166.501 118.213C166.394 118.453 166.231 118.676 166.011 118.883C165.791 119.083 165.527 119.246 165.221 119.373C164.921 119.493 164.587 119.553 164.221 119.553ZM169.983 119.493C169.503 119.493 169.133 119.353 168.873 119.073C168.613 118.793 168.483 118.393 168.483 117.873V114.823H167.493V114.073H167.743C167.97 114.073 168.15 113.999 168.283 113.853C168.416 113.699 168.483 113.509 168.483 113.283V112.833H169.233V114.073H170.413V114.823H169.233V117.873C169.233 118.053 169.26 118.213 169.313 118.353C169.366 118.486 169.456 118.593 169.583 118.673C169.716 118.753 169.893 118.793 170.113 118.793C170.166 118.793 170.23 118.789 170.303 118.783C170.376 118.776 170.44 118.769 170.493 118.763V119.433C170.413 119.453 170.323 119.466 170.223 119.473C170.123 119.486 170.043 119.493 169.983 119.493ZM173.262 119.553C172.922 119.553 172.619 119.489 172.352 119.363C172.086 119.229 171.876 119.049 171.722 118.823C171.569 118.596 171.492 118.336 171.492 118.043C171.492 117.763 171.552 117.509 171.672 117.283C171.792 117.049 171.979 116.853 172.232 116.693C172.486 116.533 172.809 116.419 173.202 116.353L175.302 116.003V116.683L173.382 117.003C172.996 117.069 172.716 117.193 172.542 117.373C172.376 117.553 172.292 117.766 172.292 118.013C172.292 118.253 172.386 118.456 172.572 118.623C172.766 118.789 173.012 118.873 173.312 118.873C173.679 118.873 173.999 118.796 174.272 118.643C174.546 118.483 174.759 118.269 174.912 118.003C175.066 117.736 175.142 117.439 175.142 117.113V115.753C175.142 115.433 175.026 115.173 174.792 114.973C174.559 114.773 174.256 114.673 173.882 114.673C173.556 114.673 173.269 114.756 173.022 114.923C172.776 115.083 172.592 115.293 172.472 115.553L171.792 115.183C171.892 114.956 172.049 114.749 172.262 114.563C172.482 114.376 172.732 114.229 173.012 114.123C173.292 114.009 173.582 113.953 173.882 113.953C174.276 113.953 174.622 114.029 174.922 114.183C175.229 114.336 175.466 114.549 175.632 114.823C175.806 115.089 175.892 115.399 175.892 115.753V119.433H175.142V118.363L175.252 118.473C175.159 118.673 175.012 118.856 174.812 119.023C174.619 119.183 174.389 119.313 174.122 119.413C173.862 119.506 173.576 119.553 173.262 119.553Z" fill="#595959"/>
<path d="M28.3829 92.0278C28.3829 68.3981 37.7698 45.7362 54.4785 29.0274C71.1873 12.3187 93.8492 2.93179 117.479 2.93179C141.109 2.93179 163.771 12.3187 180.479 29.0274C197.188 45.7362 206.575 68.3981 206.575 92.0279" stroke="white" stroke-opacity="0.1" stroke-width="5.86358"/>
<path d="M28.3829 92.0279C28.3829 80.3276 30.6874 68.7419 35.1649 57.9323C39.6424 47.1226 46.2052 37.3008 54.4785 29.0274C62.7519 20.7541 72.5737 14.1913 83.3834 9.71382C94.193 5.23633 105.779 2.93179 117.479 2.93179" stroke="#FF9406" stroke-width="5.86358"/>
<path d="M40.3996 91.8363C40.2943 78.1743 43.8221 64.7297 50.6218 52.8794C57.4215 41.0292 67.2487 31.1992 79.0969 24.396C90.9452 17.5929 104.389 14.0612 118.051 14.1626C131.713 14.2639 145.103 17.9947 156.849 24.9729" stroke="#373737" stroke-width="1.17272"/>
<circle cx="157.917" cy="25.8658" r="2.74186" fill="#373737"/>
<circle cx="143.912" cy="116.191" r="2.74186" fill="#373737"/>
<rect x="59.5878" y="114.641" width="11.7622" height="3.09949" fill="#FF9406"/>
<rect x="132.15" y="115.631" width="11.7622" height="1.11969" fill="#373737"/>
</svg>
