<svg width="18" height="18" viewBox="0 0 18 18" fill="none" xmlns="http://www.w3.org/2000/svg">
<path fill-rule="evenodd" clip-rule="evenodd" d="M3.33333 6.71083V5.625C3.33333 4.13316 3.92597 2.70242 4.98086 1.64752C6.03575 0.592632 7.46649 0 8.95833 0C10.4502 0 11.8809 0.592632 12.9358 1.64752C13.9907 2.70242 14.5833 4.13316 14.5833 5.625V6.71083C14.7722 6.72361 14.9506 6.74139 15.1183 6.76417C15.8683 6.86417 16.5 7.08083 17.0017 7.58167C17.5033 8.08333 17.7183 8.715 17.82 9.465C17.9167 10.1875 17.9167 11.1067 17.9167 12.2458V12.3375C17.9167 13.4767 17.9167 14.3958 17.82 15.1183C17.7183 15.8683 17.5033 16.5 17.0017 17.0017C16.5 17.5033 15.8683 17.7183 15.1183 17.82C14.3958 17.9167 13.4767 17.9167 12.3375 17.9167H5.57917C4.44 17.9167 3.52083 17.9167 2.79833 17.82C2.04833 17.7183 1.41667 17.5033 0.915 17.0017C0.413333 16.5 0.198333 15.8683 0.0975 15.1183C-1.24176e-08 14.3958 0 13.4767 0 12.3375V12.2458C0 11.1067 -1.24176e-08 10.1875 0.0975 9.465C0.1975 8.715 0.414167 8.08333 0.915 7.58167C1.41667 7.08 2.04833 6.865 2.79833 6.76417C2.96556 6.74139 3.14389 6.72361 3.33333 6.71083ZM4.58333 5.625C4.58333 4.46468 5.04427 3.35188 5.86474 2.53141C6.68521 1.71094 7.79801 1.25 8.95833 1.25C10.1187 1.25 11.2315 1.71094 12.0519 2.53141C12.8724 3.35188 13.3333 4.46468 13.3333 5.625V6.66917C13.0222 6.66694 12.6903 6.66611 12.3375 6.66667H5.57917C5.22694 6.66667 4.895 6.6675 4.58333 6.66917V5.625ZM1.79917 8.46583C2.03 8.235 2.35333 8.085 2.96583 8.0025C3.59417 7.91833 4.42917 7.91667 5.625 7.91667H12.2917C13.4875 7.91667 14.3217 7.91833 14.9517 8.0025C15.5633 8.085 15.8867 8.23583 16.1175 8.46583C16.3483 8.69667 16.4983 9.02 16.5808 9.6325C16.665 10.2617 16.6667 11.0958 16.6667 12.2917C16.6667 13.4875 16.665 14.3217 16.5808 14.9517C16.4983 15.5633 16.3475 15.8867 16.1175 16.1175C15.8867 16.3483 15.5633 16.4983 14.9508 16.5808C14.3217 16.665 13.4875 16.6667 12.2917 16.6667H5.625C4.42917 16.6667 3.59417 16.665 2.965 16.5808C2.35333 16.4983 2.03 16.3475 1.79917 16.1175C1.56833 15.8867 1.41833 15.5633 1.33583 14.9508C1.25167 14.3217 1.25 13.4875 1.25 12.2917C1.25 11.0958 1.25167 10.2608 1.33583 9.63167C1.41833 9.02 1.56917 8.69667 1.79917 8.46583Z" fill="white"/>
</svg>
